<svg id="SvgjsSvg1013" width="288" height="288" xmlns="http://www.w3.org/2000/svg" version="1.1" xmlns:xlink="http://www.w3.org/1999/xlink" xmlns:svgjs="http://svgjs.com/svgjs"><defs id="SvgjsDefs1014"></defs><g id="SvgjsG1015" transform="matrix(0.9167,0,0,0.9167,11.9952003177643,11.995199205589302)"><!--?xml version="1.0" encoding="UTF-8"?--><svg xmlns="http://www.w3.org/2000/svg" version="1.2" baseProfile="tiny" width="288" height="288" viewBox="0 0 50 50" overflow="inherit"><path d="M43.16 21H41v-8.632C41 6.69 35.304 1 29.626 1h-9.481C14.47 1 9 6.69 9 12.368V21H6.61C5.933 21 5 22.062 5 22.66v25.458c0 .598.933.882 1.61.882h36.55c.679 0 1.84-.284 1.84-.882V22.66c0-.598-1.161-1.66-1.84-1.66zM29.713 45h-9.651l2.025-9.967c-1.224-.867-2.025-2.501-2.025-4.105 0-2.643 2.161-4.894 4.825-4.894s4.826 2.089 4.826 4.73c0 1.605-.801 3.429-2.023 4.297L29.713 45zM34 21H16v-8.632C16 9.79 17.693 8 20.241 8h9.289C32.078 8 34 9.79 34 12.368V21z" fill="#666666" class="color000 svgShape"></path><metadata><rdf:rdf xmlns:rdf="http://www.w3.org/1999/02/22-rdf-syntax-ns#" xmlns:rdfs="http://www.w3.org/2000/01/rdf-schema#" xmlns:dc="http://purl.org/dc/elements/1.1/"><rdf:description about="https://iconscout.com/legal#licenses" dc:title="locksmith" dc:description="locksmith" dc:publisher="Iconscout" dc:date="2017-09-24" dc:format="image/svg+xml" dc:language="en"><dc:creator><rdf:bag><rdf:li>Scott De Jonge</rdf:li></rdf:bag></dc:creator></rdf:description></rdf:rdf></metadata></svg></g></svg>